<?xml version="1.0" encoding="UTF-8"?>
<svg width="161px" height="25px" viewBox="0 0 161 25" version="1.1" xmlns="http://www.w3.org/2000/svg" xmlns:xlink="http://www.w3.org/1999/xlink">
    <!-- Generator: Sketch 48.2 (47327) - http://www.bohemiancoding.com/sketch -->
    <title>logo-v1-blue copy</title>
    <desc>Created with Sketch.</desc>
    <defs></defs>
    <g id="HGMD-v7.1" stroke="none" stroke-width="1" fill="none" fill-rule="evenodd" transform="translate(-30.000000, -18.000000)">
        <g id="logo-v1-blue-copy" transform="translate(30.000000, 18.000000)">
            <path d="M161,18.5393939 L161,21.4666667 L160.654844,21.4666667 L160.654844,19.2393752 L160.152358,21.0347175 L159.820882,21.0347175 L159.315546,19.2449682 L159.315546,21.4666667 L158.973525,21.4666667 L158.973525,18.5393939 L159.451215,18.5393939 L159.988473,20.4242237 L160.522026,18.5393939 L161,18.5393939 Z M157.09697,18.5449869 L158.628084,18.5449869 L158.628084,19.0289936 L158.035247,19.0289936 L158.035247,21.4666667 L157.686386,21.4666667 L157.686386,19.0289936 L157.09697,19.0289936 L157.09697,18.5449869 Z" id="Fill-1" fill="#626366"></path>
            <path d="M39.3789412,9.73631114 C38.6573685,9.73631114 37.3842488,9.89499495 36.43752,10.8788838 L36.43752,5.89685292 C36.43752,5.38088414 36.0216033,4.9605199 35.5105503,4.9605199 L35.3697973,4.9605199 C34.8587442,4.9605199 34.4430715,5.38088414 34.4430715,5.89685292 L34.4430715,19.015125 C34.4430715,19.5313402 34.8587442,19.9512117 35.3697973,19.9512117 L35.5105503,19.9512117 C36.0216033,19.9512117 36.43752,19.5313402 36.43752,19.015125 L36.43752,14.356129 C36.43752,12.7744654 37.5269533,11.6695924 39.0869458,11.6695924 C40.6427912,11.6695924 41.5351215,12.6340155 41.5351215,14.3157189 L41.5351215,19.015125 C41.5351215,19.5313402 41.9512821,19.9512117 42.4620912,19.9512117 L42.6130897,19.9512117 C43.1243867,19.9512117 43.5398155,19.5313402 43.5398155,19.015125 L43.5398155,13.7768346 C43.5398155,11.3601097 41.8676109,9.73631114 39.3789412,9.73631114" id="Fill-2" fill="#626366"></path>
            <path d="M50.2611752,9.73631114 C47.4070842,9.73631114 45.3355509,11.9273304 45.3355509,14.945526 C45.3355509,18.0125095 47.4024494,20.1544945 50.3619221,20.1544945 C51.77921,20.1544945 52.89816,19.8132257 53.884163,19.081654 C54.0600433,18.9508137 54.1734752,18.7566478 54.2042115,18.5348848 C54.2351918,18.30844 54.1732312,18.075096 54.0344297,17.8939894 C53.7204797,17.485699 53.1625903,17.38492 52.7359403,17.659167 C52.040957,18.106882 51.2552282,18.3436757 50.4624252,18.3436757 C48.8341297,18.3436757 47.6832236,17.3417994 47.4168418,15.7140583 L54.1437145,15.7140583 C54.5796342,15.7140583 54.93481,15.3557877 54.9350539,14.9154648 L54.9350539,14.9139864 C54.914563,11.8652368 52.9925645,9.73631114 50.2611752,9.73631114 M52.8737661,14.0141211 L47.4448948,14.0141211 C47.7515267,12.4782885 48.780707,11.5683206 50.2306827,11.5683206 C51.6255282,11.5683206 52.6237282,12.4997256 52.8737661,14.0141211" id="Fill-4" fill="#626366"></path>
            <path d="M65.3335805,9.93964325 L65.1828259,9.93964325 C64.6715289,9.93964325 64.2561002,10.3600075 64.2561002,10.8759763 L64.2561002,10.9632031 C63.4350002,10.1589423 62.340688,9.73660683 61.0634214,9.73660683 C58.2378714,9.73660683 56.1075486,11.9761676 56.1075486,14.9455753 C56.1075486,17.9154758 58.2378714,20.1547902 61.0634214,20.1547902 C62.3375168,20.1547902 63.4320729,19.7349187 64.2561002,18.9350932 L64.2561002,19.0151743 C64.2561002,19.5313895 64.6715289,19.9515073 65.1828259,19.9515073 L65.3335805,19.9515073 C65.8446335,19.9515073 66.2605502,19.5313895 66.2605502,19.0151743 L66.2605502,10.8759763 C66.2605502,10.3600075 65.8446335,9.93964325 65.3335805,9.93964325 M61.2544259,18.2414676 C59.4512259,18.2414676 58.1420032,16.8552019 58.1420032,14.9455753 C58.1420032,13.0413696 59.4512259,11.6595392 61.2544259,11.6595392 C63.0517714,11.6595392 64.3563592,13.0413696 64.3563592,14.9455753 C64.3563592,16.8552019 63.0517714,18.2414676 61.2544259,18.2414676" id="Fill-6" fill="#626366"></path>
            <path d="M69.6151559,4.96054454 L69.4744029,4.96054454 C68.9635938,4.96054454 68.5474332,5.38090878 68.5474332,5.89687756 L68.5474332,19.0151497 C68.5474332,19.5313649 68.9635938,19.9517291 69.4744029,19.9517291 L69.6151559,19.9517291 C70.1262089,19.9517291 70.5421256,19.5313649 70.5421256,19.0151497 L70.5421256,5.89687756 C70.5421256,5.38090878 70.1262089,4.96054454 69.6151559,4.96054454" id="Fill-8" fill="#626366"></path>
            <path d="M78.9186873,17.9364448 C78.4864267,18.1360315 78.0361145,18.2414922 77.6170267,18.2414922 C76.5700388,18.2414922 75.9933661,17.5653612 75.9933661,16.3375329 L75.9933661,11.8120875 L79.0804191,11.8120875 C79.5917161,11.8120875 80.0071448,11.3917233 80.0071448,10.8757545 C80.0071448,10.3595393 79.5917161,9.93966789 79.0804191,9.93966789 L75.9933661,9.93966789 L75.9933661,7.84794919 C75.9933661,7.3314876 75.5774494,6.91186257 75.0663964,6.91186257 L74.9153979,6.91186257 C74.4048327,6.91186257 73.98916,7.3314876 73.98916,7.84794919 L73.98916,9.93966789 L72.8733812,9.93966789 C72.3625721,9.93966789 71.9464115,10.3595393 71.9464115,10.8757545 C71.9464115,11.3917233 72.3625721,11.8120875 72.8733812,11.8120875 L73.98916,11.8120875 L73.98916,16.3683333 C73.98916,18.8099449 75.2276403,20.1548148 77.4762736,20.1548148 C78.2734676,20.1548148 79.0360221,19.969273 79.7429585,19.6031175 C79.9695782,19.4860759 80.1325297,19.2830395 80.2013206,19.031708 C80.2710873,18.7766804 80.2310812,18.5019406 80.0922797,18.2782063 C79.8490721,17.8854392 79.3448494,17.7390756 78.9186873,17.9364448" id="Fill-10" fill="#626366"></path>
            <path d="M86.7190153,9.73631114 C85.9974426,9.73631114 84.723835,9.89499495 83.7775941,10.8788838 L83.7775941,5.89685292 C83.7775941,5.38088414 83.3616774,4.9605199 82.8508683,4.9605199 L82.7101153,4.9605199 C82.1990623,4.9605199 81.7836335,5.38088414 81.7836335,5.89685292 L81.7836335,19.015125 C81.7836335,19.5313402 82.1990623,19.9512117 82.7101153,19.9512117 L82.8508683,19.9512117 C83.3616774,19.9512117 83.7775941,19.5313402 83.7775941,19.015125 L83.7775941,14.356129 C83.7775941,12.7744654 84.8670274,11.6695924 86.4270198,11.6695924 C87.9828653,11.6695924 88.8751956,12.6340155 88.8751956,14.3157189 L88.8751956,19.015125 C88.8751956,19.5313402 89.2913562,19.9512117 89.8021653,19.9512117 L89.9531638,19.9512117 C90.4644608,19.9512117 90.8798895,19.5313402 90.8798895,19.015125 L90.8798895,13.7768346 C90.8798895,11.3601097 89.207685,9.73631114 86.7190153,9.73631114" id="Fill-12" fill="#626366"></path>
            <path d="M101.771076,9.93964325 L101.620809,9.93964325 C101.109512,9.93964325 100.69384,10.3595147 100.69384,10.8757299 L100.69384,10.9585214 C99.90372,10.1572175 98.8374609,9.73660683 97.5809291,9.73660683 C94.7390352,9.73660683 92.6760397,11.8931296 92.6760397,14.8640158 C92.6760397,17.8413084 94.7390352,20.0025129 97.5809291,20.0025129 C98.8406321,20.0025129 99.9068912,19.5851054 100.69384,18.7897152 L100.69384,19.1728725 C100.69384,21.1347366 99.4778018,22.3061385 97.4401761,22.3061385 C96.5458942,22.3061385 95.6501488,22.0752585 94.8505155,21.6386316 C94.6417033,21.5250396 94.4006912,21.5006457 94.1706564,21.5693923 C93.934767,21.6408493 93.7405912,21.8012579 93.6235003,22.0205569 L93.6032533,22.0592423 C93.3649245,22.5067109 93.524217,23.0719604 93.9591609,23.3188566 C94.9234533,23.8653794 96.1924261,24.1785582 97.4401761,24.1785582 C100.68335,24.1785582 102.698046,22.2332031 102.698046,19.1016619 L102.698046,10.8757299 C102.698046,10.3595147 102.282129,9.93964325 101.771076,9.93964325 M100.834593,14.8640158 C100.834593,16.7268257 99.5470806,18.0788413 97.7726655,18.0788413 C95.9982503,18.0788413 94.7102503,16.7268257 94.7102503,14.8640158 C94.7102503,13.0073659 95.9982503,11.6595392 97.7726655,11.6595392 C99.5470806,11.6595392 100.834593,13.0073659 100.834593,14.8640158" id="Fill-14" fill="#626366"></path>
            <path d="M110.539575,9.81126706 C110.250995,9.76100077 109.936557,9.73660683 109.578942,9.73660683 C108.555372,9.73660683 107.641819,10.1402156 106.959521,10.8841076 L106.959521,10.8759763 C106.959521,10.3597611 106.543848,9.93964325 106.032551,9.93964325 L105.912289,9.93964325 C105.401236,9.93964325 104.985319,10.3597611 104.985319,10.8759763 L104.985319,19.0151743 C104.985319,19.5316359 105.401236,19.9515073 105.912289,19.9515073 L106.053042,19.9515073 C106.564095,19.9515073 106.979768,19.5316359 106.979768,19.0151743 L106.979768,14.3968349 C106.979768,12.7658906 107.906981,11.6696417 109.287434,11.6696417 C109.570892,11.6696417 109.874108,11.7063558 110.163908,11.776088 C110.666424,11.8978113 111.178696,11.5875894 111.30213,11.0844336 L111.317498,11.0218471 C111.382874,10.7557314 111.335793,10.4716283 111.187478,10.2424731 C111.040383,10.0145499 110.804005,9.85734451 110.539575,9.81126706" id="Fill-16" fill="#626366"></path>
            <path d="M121.010625,9.93964325 L120.859626,9.93964325 C120.348329,9.93964325 119.932657,10.3600075 119.932657,10.8759763 L119.932657,10.9632031 C119.111557,10.1589423 118.017245,9.73660683 116.739978,9.73660683 C113.914916,9.73660683 111.784593,11.9761676 111.784593,14.9455753 C111.784593,17.9154758 113.914916,20.1547902 116.739978,20.1547902 C118.014317,20.1547902 119.108629,19.7349187 119.932657,18.9350932 L119.932657,19.0151743 C119.932657,19.5313895 120.348329,19.9515073 120.859626,19.9515073 L121.010625,19.9515073 C121.521434,19.9515073 121.937595,19.5313895 121.937595,19.0151743 L121.937595,10.8759763 C121.937595,10.3600075 121.521434,9.93964325 121.010625,9.93964325 M116.931226,18.2414676 C115.128026,18.2414676 113.819048,16.8552019 113.819048,14.9455753 C113.819048,13.0413696 115.128026,11.6595392 116.931226,11.6595392 C118.728816,11.6595392 120.03316,13.0413696 120.03316,14.9455753 C120.03316,16.8552019 118.728816,18.2414676 116.931226,18.2414676" id="Fill-18" fill="#626366"></path>
            <path d="M133.059645,4.96054454 L132.908891,4.96054454 C132.397838,4.96054454 131.982409,5.38090878 131.982409,5.89687756 L131.982409,10.9626856 C131.161065,10.1586713 130.066509,9.73633578 128.789242,9.73633578 C125.96418,9.73633578 123.833857,11.9758965 123.833857,14.9453043 C123.833857,17.9154512 125.96418,20.1550119 128.789242,20.1550119 C130.063826,20.1550119 131.158138,19.7348941 131.982409,18.9348222 L131.982409,19.0156425 C131.982409,19.5313649 132.397838,19.9512363 132.908891,19.9512363 L133.059645,19.9512363 C133.570698,19.9512363 133.986615,19.5313649 133.986615,19.0156425 L133.986615,5.89687756 C133.986615,5.38090878 133.570698,4.96054454 133.059645,4.96054454 M132.082668,14.9453043 C132.082668,16.8554236 130.77808,18.2414429 128.980491,18.2414429 C127.177291,18.2414429 125.868312,16.8554236 125.868312,14.9453043 C125.868312,13.0418378 127.177291,11.6597609 128.980491,11.6597609 C130.77808,11.6597609 132.082668,13.0418378 132.082668,14.9453043" id="Fill-20" fill="#626366"></path>
            <path d="M151.743403,14.0361002 L150.635918,13.8941719 C149.133495,13.7093693 148.941027,13.2131128 148.941027,12.8016191 C148.941027,12.0399861 149.716022,11.5481648 150.916204,11.5481648 C151.68754,11.5481648 152.554501,11.7418379 153.295345,12.0794106 C153.752487,12.2886071 154.27964,12.1158783 154.52114,11.6785122 C154.640671,11.4624164 154.666772,11.2032 154.592859,10.9676384 C154.518213,10.7303519 154.355262,10.541114 154.134009,10.4344213 C153.214601,9.99089516 152.064671,9.74695577 150.895957,9.74695577 C148.45388,9.74695577 146.875836,10.9816833 146.875836,12.8927883 C146.875836,14.0190984 147.454704,15.4337005 150.211707,15.7737372 L151.316997,15.9060559 C153.083118,16.1268333 153.083118,16.8211982 153.083118,17.0491214 C153.083118,17.8713696 152.223963,18.3429858 150.725443,18.3429858 C149.695775,18.3429858 148.846866,18.144631 148.129928,17.7363405 C147.701815,17.4921547 147.167587,17.6244734 146.900962,18.0569114 C146.774113,18.2629047 146.737522,18.5061048 146.798019,18.7409273 C146.858272,18.9767354 147.014881,19.1800182 147.227353,19.2987847 C148.55975,20.0436622 149.984356,20.1550366 150.715198,20.1550366 C153.395604,20.1550366 155.12733,18.8959151 155.12733,16.9468639 C155.12733,15.8276996 154.5409,14.4138367 151.743403,14.0361002" id="Fill-22" fill="#626366"></path>
            <path d="M140.808527,9.73631114 C137.954436,9.73631114 135.883146,11.9273304 135.883146,14.945526 C135.883146,18.0125095 137.949801,20.1544945 140.90903,20.1544945 C142.326805,20.1544945 143.445755,19.8132257 144.43127,19.081654 C144.606663,18.9508137 144.720339,18.7568942 144.750831,18.5353776 C144.782299,18.3086864 144.720339,18.0753424 144.581537,17.8942358 C144.273198,17.4925983 143.703355,17.3883696 143.283292,17.659167 C142.588308,18.106882 141.801848,18.3436757 141.009533,18.3436757 C139.381237,18.3436757 138.230331,17.3417994 137.964437,15.7140583 L144.691066,15.7140583 C145.126986,15.7140583 145.482161,15.3557877 145.482649,14.9154648 L145.482649,14.9139864 C145.461427,11.8652368 143.539428,9.73631114 140.808527,9.73631114 M143.420873,14.0141211 L137.992002,14.0141211 C138.299122,12.4782885 139.328302,11.5683206 140.778278,11.5683206 C142.173123,11.5683206 143.171323,12.4997256 143.420873,14.0141211" id="Fill-24" fill="#626366"></path>
            <path d="M20.6032188,8.99853 C20.8771627,9.27524105 21.2357536,9.41347337 21.5945885,9.41347337 C21.9534233,9.41347337 22.3120142,9.27524105 22.5859582,8.99853 L27.605743,3.92828665 C28.1528991,3.37511096 28.1528991,2.47869529 27.605743,1.92551959 C27.0578552,1.37234389 26.1704036,1.37234389 25.6230036,1.92551959 L20.6032188,6.99576293 C20.0558188,7.54893863 20.0558188,8.4453543 20.6032188,8.99853" id="Fill-26" fill="#0202EA"></path>
            <path d="M25.1384912,11.4139735 C24.6096306,10.8797709 23.7648685,10.8632619 23.2142973,11.3607504 L15.9924715,18.6555239 C15.5853367,19.0667712 14.9254806,19.0667712 14.5183458,18.6555239 C14.1114548,18.2442766 14.1114548,17.5777553 14.5183458,17.166508 L17.10142,14.5573421 L17.097517,14.5425579 L19.78207,11.8308881 C20.32947,11.2777124 20.32947,10.3812968 19.78207,9.82812106 C19.2341821,9.27494536 18.3469745,9.27494536 17.7993306,9.82812106 L16.228117,11.4152055 L16.227873,11.4139735 L15.9739321,11.6704795 C15.5697245,12.07877 14.9145033,12.07877 14.5105397,11.6704795 C14.1063321,11.262189 14.1063321,10.6005958 14.5105397,10.1923053 L15.5860685,9.10566621 L15.5850927,9.10246296 L20.7544124,3.88117432 C21.3018124,3.32799862 21.3018124,2.43158295 20.7544124,1.87840725 C20.2067685,1.32523156 19.319317,1.32523156 18.771673,1.87840725 L15.7414579,4.93923064 C15.4682458,5.21150643 15.1125821,5.34776752 14.7569185,5.34776752 C14.4188185,5.34776752 14.0814503,5.22333379 13.8145806,4.97766957 L10.9219473,2.05581772 C8.46011091,-0.429900061 4.45438212,-0.429900061 1.99230182,2.05581772 C0.799926061,3.26048408 0.142997273,4.86210637 0.142997273,6.56598607 C0.142997273,8.26937297 0.799926061,9.87099526 1.99230182,11.0754152 L13.6950503,22.8968661 C13.7072473,22.9099255 13.7182245,22.9239705 13.7309094,22.9367834 C14.0048533,23.2134945 14.3636882,23.3514804 14.7222791,23.3514804 C15.0811139,23.3514804 15.4399488,23.2134945 15.7136488,22.9367834 L25.1384912,13.4167406 C25.6858912,12.8635649 25.6858912,11.9671492 25.1384912,11.4139735" id="Fill-28" fill="#0202EA"></path>
            <path d="M26.7729339,8.01074793 C26.0025733,8.01074793 25.3783324,8.64154071 25.3783324,9.41968274 C25.3783324,10.1975784 26.0025733,10.8283711 26.7729339,10.8283711 C27.5432945,10.8283711 28.1675355,10.1975784 28.1675355,9.41968274 C28.1675355,8.64154071 27.5432945,8.01074793 26.7729339,8.01074793" id="Fill-30" fill="#0202EA"></path>
        </g>
    </g>
</svg>